<?xml version="1.0" encoding="UTF-8" standalone="no"?>
<svg
   version="1.1"
   x="0px"
   y="0px"
   viewBox="0 0 231 100"
   enable-background="new 0 0 100 100"
   xml:space="preserve"
   id="svg8"
   sodipodi:docname="laptop_depot_logo_with_text.svg"
   inkscape:version="1.3.2 (091e20e, 2023-11-25, custom)"
   width="231"
   height="100"
   xmlns:inkscape="http://www.inkscape.org/namespaces/inkscape"
   xmlns:sodipodi="http://sodipodi.sourceforge.net/DTD/sodipodi-0.dtd"
   xmlns="http://www.w3.org/2000/svg"
   xmlns:svg="http://www.w3.org/2000/svg"><defs
     id="defs8" /><sodipodi:namedview
     id="namedview8"
     pagecolor="#ffffff"
     bordercolor="#000000"
     borderopacity="0.25"
     inkscape:showpageshadow="2"
     inkscape:pageopacity="0.0"
     inkscape:pagecheckerboard="0"
     inkscape:deskcolor="#d1d1d1"
     inkscape:zoom="4.185"
     inkscape:cx="111.94743"
     inkscape:cy="70.848268"
     inkscape:window-width="1920"
     inkscape:window-height="1051"
     inkscape:window-x="-9"
     inkscape:window-y="-9"
     inkscape:window-maximized="1"
     inkscape:current-layer="svg8"
     showborder="false" /><g
     id="g8"
     style="fill:#ff0000"
     transform="matrix(0.43115883,0,0,0.43115883,23.642578,30.681167)"><g
       id="g7"
       style="fill:#ff0000"><g
         id="g3"
         style="fill:#ff0000"><g
           enable-background="new    "
           id="g2"
           style="fill:#ff0000"><g
             id="g1"
             style="fill:#ff0000"><path
               d="M 87.626,66.08 C 87.489,66.028 87.347,65.979 87.2,65.931 87.053,65.883 86.901,65.838 86.744,65.794 86.588,65.751 86.426,65.709 86.26,65.67 86.095,65.631 85.925,65.595 85.75,65.56 L 35.432,55.724 c -0.378,-0.074 -0.802,-0.112 -1.244,-0.117 -0.441,-0.005 -0.902,0.021 -1.357,0.077 -0.455,0.055 -0.905,0.14 -1.324,0.25 -0.42,0.111 -0.811,0.247 -1.146,0.408 L 6.805,67.628 c -0.366,0.175 -0.679,0.361 -0.937,0.552 -0.259,0.192 -0.463,0.388 -0.607,0.582 -0.146,0.196 -0.232,0.39 -0.255,0.575 -0.023,0.187 0.017,0.365 0.125,0.527 0.032,0.048 0.07,0.095 0.113,0.14 0.044,0.045 0.094,0.089 0.15,0.131 0.056,0.042 0.118,0.082 0.187,0.12 0.068,0.038 0.143,0.075 0.224,0.109 L 58.38,92.539 c 0.896,0.378 1.865,0.638 2.846,0.781 0.989,0.145 1.985,0.17 2.93,0.082 0.946,-0.088 1.834,-0.291 2.604,-0.601 0.767,-0.309 1.412,-0.722 1.88,-1.232 L 89.578,68.746 c 0.208,-0.226 0.306,-0.464 0.307,-0.703 10e-4,-0.238 -0.095,-0.478 -0.276,-0.712 -0.179,-0.232 -0.443,-0.458 -0.779,-0.67 -0.332,-0.208 -0.737,-0.405 -1.204,-0.581"
               id="path1"
               style="fill:#ff0000" /></g></g></g><g
         id="g6"
         style="fill:#ff0000"><g
           enable-background="new    "
           id="g5"
           style="fill:#ff0000"><g
             id="g4"
             style="fill:#ff0000"><path
               d="M 34.256,49.441 V 20.401 L 89.569,13.7 V 56.142 L 34.256,49.441 M 88.707,6.634 34.663,15.405 c -0.398,0.065 -0.774,0.232 -1.115,0.48 -0.339,0.246 -0.642,0.571 -0.895,0.952 -0.252,0.38 -0.456,0.815 -0.596,1.285 -0.14,0.469 -0.217,0.973 -0.217,1.491 v 30.616 c 0,0.518 0.077,1.022 0.217,1.491 0.14,0.47 0.344,0.906 0.596,1.285 0.254,0.381 0.557,0.706 0.895,0.952 0.341,0.247 0.717,0.415 1.115,0.48 l 54.044,8.771 c 0.843,0.137 1.653,0.111 2.397,-0.054 0.75,-0.167 1.431,-0.476 2.006,-0.902 0.58,-0.429 1.051,-0.977 1.379,-1.617 C 94.818,59.992 95,59.259 95,58.463 V 11.38 C 95,10.584 94.818,9.851 94.489,9.208 94.162,8.568 93.69,8.02 93.11,7.591 92.534,7.164 91.853,6.856 91.104,6.689 90.36,6.523 89.55,6.498 88.707,6.634"
               id="path3"
               style="fill:#ff0000" /></g></g></g></g></g><text
     xml:space="preserve"
     style="font-style:normal;font-variant:normal;font-weight:bold;font-stretch:normal;font-size:22.2189px;font-family:Gadugi;-inkscape-font-specification:'Gadugi Bold';letter-spacing:0px;opacity:0.920474;fill:#ff0000;stroke:none;stroke-width:1.88186"
     x="66.945213"
     y="52.221172"
     id="text1"><tspan
       sodipodi:role="line"
       x="66.945213"
       y="52.221172"
       id="tspan2"
       style="font-style:normal;font-variant:normal;font-weight:bold;font-stretch:normal;font-family:Gadugi;-inkscape-font-specification:'Gadugi Bold';letter-spacing:0px;fill:#ff0000;stroke-width:1.88186"><tspan
   dy="0 0 0 0 0 0 0"
   id="tspan3"
   style="font-style:normal;font-variant:normal;font-weight:bold;font-stretch:normal;font-family:Gadugi;-inkscape-font-specification:'Gadugi Bold';letter-spacing:0px;fill:#ff0000;stroke-width:1.88186">Laptop </tspan>Depot</tspan></text><text
     xml:space="preserve"
     style="font-style:normal;font-variant:normal;font-weight:normal;font-stretch:normal;font-size:12.2251px;font-family:Gadugi;-inkscape-font-specification:Gadugi;letter-spacing:0px;opacity:0.920474;fill:#ff0000;stroke-width:1.20798"
     x="68.300377"
     y="64.909904"
     id="text9"><tspan
       sodipodi:role="line"
       id="tspan9"
       x="68.300377"
       y="64.909904"
       style="font-style:normal;font-variant:normal;font-weight:normal;font-stretch:normal;font-family:Gadugi;-inkscape-font-specification:Gadugi;fill:#ff0000;stroke-width:1.20798">best deals on top brands</tspan></text><circle
     id="path2"
     style="fill:#ff0000;stroke:#000000"
     cx="82.198326"
     cy="48.745522"
     r="0.19018444" /></svg>
