<?xml version="1.0" encoding="UTF-8" standalone="no"?>
<svg
   version="1.1"
   x="0px"
   y="0px"
   viewBox="0 0 100 100"
   enable-background="new 0 0 100 100"
   xml:space="preserve"
   id="svg8"
   sodipodi:docname="laptop_depot.svg"
   inkscape:version="1.3.2 (091e20e, 2023-11-25, custom)"
   xmlns:inkscape="http://www.inkscape.org/namespaces/inkscape"
   xmlns:sodipodi="http://sodipodi.sourceforge.net/DTD/sodipodi-0.dtd"
   xmlns="http://www.w3.org/2000/svg"
   xmlns:svg="http://www.w3.org/2000/svg"><defs
     id="defs8" /><sodipodi:namedview
     id="namedview8"
     pagecolor="#ffffff"
     bordercolor="#000000"
     borderopacity="0.25"
     inkscape:showpageshadow="2"
     inkscape:pageopacity="0.0"
     inkscape:pagecheckerboard="0"
     inkscape:deskcolor="#d1d1d1"
     inkscape:zoom="8.37"
     inkscape:cx="50"
     inkscape:cy="50"
     inkscape:window-width="1920"
     inkscape:window-height="1051"
     inkscape:window-x="-9"
     inkscape:window-y="-9"
     inkscape:window-maximized="1"
     inkscape:current-layer="svg8" /><g
     id="g8"
     style="fill:#ff0000"><g
       id="g7"
       style="fill:#ff0000"><g
         id="g3"
         style="fill:#ff0000"><g
           enable-background="new    "
           id="g2"
           style="fill:#ff0000"><g
             id="g1"
             style="fill:#ff0000"><path
               d="M87.626,66.08c-0.137-0.052-0.279-0.101-0.426-0.149c-0.147-0.048-0.299-0.093-0.456-0.137       c-0.156-0.043-0.318-0.085-0.484-0.124c-0.165-0.039-0.335-0.075-0.51-0.11l-50.318-9.836       c-0.378-0.074-0.802-0.112-1.244-0.117c-0.441-0.005-0.902,0.021-1.357,0.077c-0.455,0.055-0.905,0.14-1.324,0.25       c-0.42,0.111-0.811,0.247-1.146,0.408L6.805,67.628c-0.366,0.175-0.679,0.361-0.937,0.552       c-0.259,0.192-0.463,0.388-0.607,0.582c-0.146,0.196-0.232,0.39-0.255,0.575c-0.023,0.187,0.017,0.365,0.125,0.527       c0.032,0.048,0.07,0.095,0.113,0.14c0.044,0.045,0.094,0.089,0.15,0.131c0.056,0.042,0.118,0.082,0.187,0.12       c0.068,0.038,0.143,0.075,0.224,0.109L58.38,92.539c0.896,0.378,1.865,0.638,2.846,0.781c0.989,0.145,1.985,0.17,2.93,0.082       c0.946-0.088,1.834-0.291,2.604-0.601c0.767-0.309,1.412-0.722,1.88-1.232l20.938-22.823c0.208-0.226,0.306-0.464,0.307-0.703       c0.001-0.238-0.095-0.478-0.276-0.712c-0.179-0.232-0.443-0.458-0.779-0.67C88.498,66.453,88.093,66.256,87.626,66.08"
               id="path1"
               style="fill:#ff0000" /></g></g></g><g
         id="g6"
         style="fill:#ff0000"><g
           enable-background="new    "
           id="g5"
           style="fill:#ff0000"><g
             id="g4"
             style="fill:#ff0000"><path
               d="M34.256,49.441v-29.04L89.569,13.7v42.442L34.256,49.441 M88.707,6.634l-54.044,8.771       c-0.398,0.065-0.774,0.232-1.115,0.48c-0.339,0.246-0.642,0.571-0.895,0.952c-0.252,0.38-0.456,0.815-0.596,1.285       c-0.14,0.469-0.217,0.973-0.217,1.491l0,30.616c0,0.518,0.077,1.022,0.217,1.491c0.14,0.47,0.344,0.906,0.596,1.285       c0.254,0.381,0.557,0.706,0.895,0.952c0.341,0.247,0.717,0.415,1.115,0.48l54.044,8.771c0.843,0.137,1.653,0.111,2.397-0.054       c0.75-0.167,1.431-0.476,2.006-0.902c0.58-0.429,1.051-0.977,1.379-1.617C94.818,59.992,95,59.259,95,58.463V11.38       c0-0.796-0.182-1.529-0.511-2.172c-0.327-0.64-0.799-1.188-1.379-1.617c-0.576-0.427-1.257-0.735-2.006-0.902       C90.36,6.523,89.55,6.498,88.707,6.634"
               id="path3"
               style="fill:#ff0000" /></g></g></g></g></g></svg>
